<?xml version="1.0" encoding="UTF-8"?>
<svg width="50px" height="50px" viewBox="0 0 50 50" version="1.1" xmlns="http://www.w3.org/2000/svg" xmlns:xlink="http://www.w3.org/1999/xlink">
    <!-- Generator: Sketch 48.2 (47327) - http://www.bohemiancoding.com/sketch -->
    <title>icon--fb</title>
    <desc>Created with Sketch.</desc>
    <defs></defs>
    <g id="Artboard" stroke="none" stroke-width="1" fill="none" fill-rule="evenodd" transform="translate(-72.000000, -290.000000)">
        <g id="icon--fb" transform="translate(73.000000, 291.000000)">
            <path d="M24,0 C10.746,0 0,10.746 0,24 C0,37.254 10.746,48 24,48 C37.254,48 48,37.254 48,24 C48,10.746 37.254,0 24,0 Z" stroke="#BBE9F0" fill-rule="nonzero"></path>
            <path d="M30,16 L27.3,16 C26.224,16 26,16.442 26,17.556 L26,20 L30,20 L29.582,24 L26,24 L26,38 L20,38 L20,24 L16,24 L16,20 L20,20 L20,15.384 C20,11.846 21.862,10 26.058,10 L30,10 L30,16 Z" id="Path" fill="#FFFFFF"></path>
        </g>
    </g>
</svg>