<?xml version="1.0" encoding="UTF-8"?>
<svg width="50px" height="50px" viewBox="0 0 50 50" version="1.1" xmlns="http://www.w3.org/2000/svg" xmlns:xlink="http://www.w3.org/1999/xlink">
    <!-- Generator: Sketch 48.2 (47327) - http://www.bohemiancoding.com/sketch -->
    <title>icon--twitter</title>
    <desc>Created with Sketch.</desc>
    <defs></defs>
    <g id="Artboard" stroke="none" stroke-width="1" fill="none" fill-rule="evenodd" transform="translate(-153.000000, -290.000000)">
        <g id="icon--twitter" transform="translate(154.000000, 291.000000)">
            <path d="M24,0 C10.746,0 0,10.746 0,24 C0,37.254 10.746,48 24,48 C37.254,48 48,37.254 48,24 C48,10.746 37.254,0 24,0 Z" id="Path" stroke="#BBE9F0"></path>
            <path d="M36.132,19.29 C36.498,27.37 30.472,36.378 19.804,36.378 C16.56,36.378 13.542,35.426 11,33.796 C14.048,34.156 17.09,33.308 19.504,31.418 C16.992,31.372 14.87,29.71 14.136,27.428 C15.038,27.6 15.926,27.55 16.732,27.33 C13.97,26.774 12.062,24.286 12.124,21.624 C12.9,22.054 13.784,22.312 14.726,22.342 C12.168,20.632 11.444,17.254 12.948,14.672 C15.78,18.148 20.014,20.434 24.788,20.674 C23.95,17.082 26.676,13.62 30.386,13.62 C32.036,13.62 33.53,14.318 34.578,15.434 C35.886,15.178 37.118,14.698 38.226,14.04 C37.796,15.382 36.886,16.506 35.7,17.218 C36.862,17.078 37.97,16.77 38.998,16.312 C38.23,17.468 37.258,18.48 36.132,19.29 Z" id="Path" fill="#FFFFFF"></path>
        </g>
    </g>
</svg>